<svg width="24" height="24" viewBox="0 0 24 24" fill="none" xmlns="http://www.w3.org/2000/svg">
<path d="M10.4942 16.2931C10.8578 16.6132 11.3382 16.7738 11.9344 16.7738H21.813C19.9856 20.5281 16.1761 22.911 11.9999 22.91C5.97584 22.91 1.09082 18.0256 1.09082 12.0009C1.09082 5.97619 5.97584 1.0918 11.9999 1.0918C12.2386 1.0918 12.4752 1.09896 12.7087 1.11532L10.0363 14.483C9.99223 14.7008 9.97072 14.8828 9.97072 15.0281C9.97072 15.5517 10.1449 15.973 10.4942 16.2931ZM15.6434 1.71564L13.1123 14.3296H22.6601C22.824 13.5789 22.909 12.7996 22.909 12.0009C22.909 7.25354 19.877 3.21491 15.6434 1.71564Z" fill="#33FF9C"/>
</svg>
