<svg width="71" height="32" viewBox="0 0 71 32" fill="none" xmlns="http://www.w3.org/2000/svg">
<path d="M9.18 20.196C9.535 20.509 10.004 20.666 10.586 20.666H20.23C18.446 24.337 14.727 26.667 10.65 26.666C4.769 26.666 0 21.89 0 15.999C0 10.108 4.769 5.33203 10.65 5.33203C10.883 5.33203 11.114 5.33903 11.342 5.35503L8.733 18.426C8.69 18.639 8.669 18.817 8.669 18.959C8.669 19.471 8.839 19.883 9.18 20.196ZM14.207 5.94203L11.736 18.276H21.057C21.217 17.542 21.3 16.78 21.3 15.999C21.3 11.357 18.34 7.40803 14.207 5.94203Z" fill="#33FF9C"/>
<path d="M29.813 22.223V9.29297H32.543V19.969H38.076V22.223H29.813ZM44.246 22.413C43.251 22.413 42.393 22.211 41.674 21.806C40.966 21.405 40.392 20.803 40.024 20.077C39.637 19.327 39.443 18.441 39.443 17.419C39.443 16.421 39.637 15.546 40.023 14.793C40.388 14.062 40.955 13.451 41.656 13.031C42.361 12.611 43.189 12.4 44.139 12.4C44.778 12.4 45.373 12.503 45.923 12.709C46.477 12.911 46.961 13.216 47.372 13.625C47.789 14.033 48.112 14.547 48.343 15.165C48.574 15.779 48.689 16.499 48.689 17.325V18.062H40.515V16.397H46.162C46.162 16.009 46.078 15.666 45.91 15.367C45.747 15.073 45.504 14.83 45.21 14.667C44.897 14.489 44.543 14.4 44.183 14.407C43.775 14.407 43.414 14.502 43.099 14.692C42.792 14.872 42.54 15.131 42.367 15.443C42.191 15.754 42.101 16.101 42.097 16.485V18.069C42.097 18.549 42.186 18.964 42.361 19.313C42.542 19.662 42.796 19.932 43.125 20.121C43.452 20.31 43.841 20.405 44.29 20.405C44.589 20.405 44.861 20.363 45.11 20.279C45.358 20.195 45.57 20.069 45.746 19.9C45.923 19.732 46.057 19.525 46.15 19.281L48.633 19.445C48.515 20.026 48.248 20.566 47.858 21.011C47.471 21.453 46.971 21.798 46.358 22.046C45.748 22.291 45.045 22.413 44.246 22.413ZM53.128 16.617V22.223H50.442V12.525H53.001V14.237H53.115C53.319 13.686 53.698 13.216 54.193 12.899C54.697 12.566 55.308 12.4 56.027 12.4C56.7 12.4 57.285 12.548 57.785 12.842C58.288 13.14 58.694 13.579 58.951 14.104C59.229 14.647 59.368 15.295 59.368 16.049V22.223H56.682V16.529C56.686 15.935 56.536 15.472 56.229 15.14C55.922 14.804 55.5 14.635 54.962 14.635C54.628 14.628 54.297 14.709 54.003 14.869C53.727 15.028 53.504 15.265 53.361 15.55C53.21 15.845 53.132 16.2 53.128 16.617ZM64.244 22.406C63.627 22.406 63.076 22.3 62.594 22.085C62.126 21.879 61.728 21.544 61.446 21.118C61.169 20.689 61.03 20.155 61.03 19.515C61.03 18.976 61.129 18.524 61.326 18.157C61.524 17.791 61.793 17.497 62.134 17.274C62.474 17.051 62.86 16.883 63.293 16.769C63.744 16.653 64.203 16.573 64.667 16.529C65.122 16.483 65.576 16.428 66.028 16.365C66.373 16.31 66.623 16.23 66.779 16.125C66.934 16.02 67.012 15.864 67.012 15.658V15.62C67.012 15.22 66.886 14.91 66.633 14.692C66.385 14.473 66.033 14.363 65.575 14.363C65.092 14.363 64.707 14.47 64.421 14.685C64.147 14.879 63.948 15.159 63.854 15.481L61.371 15.279C61.484 14.714 61.74 14.188 62.114 13.75C62.484 13.317 62.961 12.985 63.545 12.754C64.133 12.517 64.814 12.4 65.587 12.4C66.125 12.4 66.64 12.462 67.131 12.589C67.602 12.704 68.049 12.903 68.449 13.176C68.833 13.438 69.146 13.789 69.363 14.199C69.585 14.612 69.697 15.106 69.697 15.683V22.223H67.15V20.878H67.075C66.919 21.181 66.711 21.449 66.451 21.68C66.174 21.917 65.856 22.099 65.512 22.217C65.146 22.343 64.724 22.406 64.244 22.406ZM65.014 20.55C65.409 20.55 65.758 20.472 66.06 20.317C66.362 20.157 66.6 19.942 66.773 19.673C66.946 19.399 67.035 19.081 67.03 18.757V17.728C66.922 17.794 66.806 17.844 66.684 17.879C66.524 17.926 66.362 17.966 66.199 18C66.019 18.034 65.838 18.065 65.657 18.094L65.165 18.164C64.881 18.202 64.604 18.276 64.339 18.385C64.124 18.471 63.934 18.613 63.791 18.796C63.66 18.964 63.596 19.174 63.596 19.427C63.596 19.793 63.729 20.073 63.992 20.266C64.261 20.455 64.602 20.55 65.014 20.55Z" fill="black"/>
</svg>
